<?xml version="1.0" encoding="utf-8"?>
<!-- Generator: Adobe Illustrator 14.0.0, SVG Export Plug-In . SVG Version: 6.00 Build 43363)  -->
<!DOCTYPE svg PUBLIC "-//W3C//DTD SVG 1.1 Tiny//EN" "http://www.w3.org/Graphics/SVG/1.1/DTD/svg11-tiny.dtd">
<svg version="1.1" baseProfile="tiny" xmlns="http://www.w3.org/2000/svg" xmlns:xlink="http://www.w3.org/1999/xlink" x="0px"
	 y="0px" width="200px" height="250px" viewBox="0 0 200 250" xml:space="preserve">
<g id="Layer_1">
	<g id="mdJqk2.tif">
		<image width="431" height="450" id="Layer_0" xlink:href="297C7142.png"  transform="matrix(1 0 0 1 -131.5 3)">
		</image>
	</g>
</g>
<g id="Layer_3">
	<path fill="#FFCFB6" d="M41,66l-2.5,97L55,200.5l46.5,32c0,0,56.5-23,60-25.5s14.5-9,20-74l1-73.5l-24-23.5L84,34L41,66z"/>
</g>
<g id="Layer_4">
	<path fill="#3F1D00" d="M115,102.5c-2.607-1.304-28.5-2-32-0.5s-20.5,8.5-21.5,12.5s10.5-1,14-2s25-3.5,27-2.5S118,104,115,102.5z"
		/>
	<path fill="#3F1D00" d="M146,103c-2.744,0.686-6,6-1,7s16.5,1,19.5,1s6.5,1,7.5,2.5s2.5-6-4-8.5S154,101,146,103z"/>
	<g>
		<path fill="#3F1D00" d="M141.586,108.983c-5.295,2.432-9.097,6.403-10.592,12.113c-0.886,3.382,0.126,7.129,0.506,10.499
			c0.576,5.108,1.046,10.181,2.367,15.164c0.22,0.829,2.152,0.312,1.932-0.518c-1.609-6.07-1.992-12.316-2.766-18.525
			c-0.989-7.938,1.834-14.233,9.381-17.699C143.623,109.462,142.537,108.547,141.586,108.983L141.586,108.983z"/>
	</g>
	<g>
		<path fill="#3F1D00" d="M133.701,146.592c0.698,5.775,7.488,8.871,6.833,14.864c-0.084,0.768,1.86,0.4,1.932-0.246
			c0.683-6.246-6.118-9.224-6.833-15.136C135.556,145.436,133.614,145.87,133.701,146.592L133.701,146.592z"/>
	</g>
</g>
<g id="Layer_5">
	<g>
		<path fill="#3F1D00" d="M89.362,118.396c-1.73,1.665,1.477,3.554,3.11,3.311c2.859-0.426,1.255-3.034-0.692-3.507
			c-0.406-0.099-1.647-0.01-1.74,0.569c-0.63,3.919,6.305,0.761,4.159-1.14c-0.523-0.463-3.216-1.921-3.594-0.216
			c-0.621,2.801,2.369,3.463,4.625,3.441c0.262-0.002,1.711-0.333,1.297-0.834c-0.989-1.197-1.939-1.658-3.421-1.986
			c-0.346-0.076-1.515,0.127-1.567,0.61c-0.111,1.033-0.117,0.834-0.006,1.866c0.286-0.22,0.572-0.44,0.858-0.661
			c-1.65,0.449-3.191,0.024-4.24-1.33c-0.602,0.238-1.204,0.475-1.806,0.713c1.898,1.846,4.539,4.233,7.448,3.232
			c1.917-0.66,5.264-3.105,3.55-5.53c-2.113-2.991-6.25-2.293-9.316-1.492c-4.118,1.077-8.885,3.186-12.414,5.583
			c-0.859,0.583,1.093,0.491,1.519,0.202c2.96-2.01,6.755-3.361,10.066-4.63c2.497-0.958,9.586-1.709,8.36,3.111
			c-1.236,4.86-6.277-0.087-7.408-1.188c-0.394-0.383-2.216,0.183-1.806,0.713c1.517,1.957,4.035,2.026,6.26,1.42
			c0.272-0.074,0.899-0.279,0.858-0.661c-0.002-0.545-0.004-1.089-0.006-1.634c-0.522,0.203-1.044,0.406-1.567,0.61
			c1.245,0.2,2.188,0.788,2.829,1.764c0.433-0.278,0.865-0.556,1.297-0.834c-1.164,0.077-2.21-0.222-3.14-0.896
			c-0.344-0.382-0.688-0.764-1.033-1.146c1.023,0.86,1.061,1.069,0.113,0.626c-0.58,0.189-1.16,0.379-1.74,0.569
			c0.572,0.074,1.055,0.343,1.448,0.806c1.089,0.915-1.937-0.149-0.53-1.502C91.649,117.862,89.75,118.022,89.362,118.396
			L89.362,118.396z"/>
	</g>
	<g>
		<path fill="#3F1D00" d="M86.534,117.259c0.053,0.49,0.168,0.928,0.375,1.375c0.625-0.198,1.25-0.396,1.875-0.594
			c-0.476-0.36-0.934-0.723-1.375-1.125c-0.357-0.325-2.148,0.279-1.817,0.67c0.348,0.411,0.644,0.853,0.943,1.299
			c0.625-0.198,1.25-0.396,1.875-0.594c-0.607-0.485-1.166-0.923-1.875-1.25c-0.364-0.167-2.219,0.309-1.817,0.67
			c0.949,0.853,2.113,1.953,3.501,1.714c1.595-0.275,1.835-1.185,1.623-2.683c-0.625,0.198-1.25,0.396-1.875,0.594
			c0.318,0.358,0.59,0.75,0.818,1.174c0.218,0.446,2.01-0.029,1.932-0.518c-0.116-0.724-0.201-1.394-0.125-2.125
			c-0.38,0.212-0.76,0.425-1.14,0.637c3.276-0.508,6.413,2.615,3.296,5.184c-0.443,0.365,0.588,0.332,0.704,0.316
			c2.648-0.347,4.137-3.901,2.581-6.097c-0.817-1.153-2.467-1.5-3.779-1.591c-1.801-0.125-3.158,1.071-4.829,1.432
			c0.129,0.175,0.259,0.35,0.388,0.524c0.3-0.109,0.6-0.217,0.899-0.326c-0.276-0.122-0.553-0.243-0.83-0.365
			c-0.292,0.167-0.583,0.333-0.875,0.5c-0.198,0.113-0.335,0.342-0.047,0.429c1.292,0.392,2.777,0.13,4.007,0.7
			c0.19-0.192,0.379-0.384,0.569-0.575c-0.929,0.343-1.904,0.373-2.872,0.458c-0.323,0.029-2.021,0.809-1.035,0.817
			c0.447-0.013,0.891,0.02,1.332,0.101c0.468,0.083,2.145-0.671,1.581-0.771c-0.564-0.1-1.093-0.144-1.668-0.149
			c-0.345,0.272-0.69,0.545-1.035,0.817c1.514-0.133,2.944-0.263,4.378-0.792c0.058-0.021,0.905-0.419,0.569-0.575
			c-1.352-0.625-2.837-0.374-4.243-0.8c-0.016,0.143-0.031,0.286-0.047,0.429c0.292-0.167,0.583-0.333,0.875-0.5
			c0.771-0.44-0.584-0.429-0.83-0.365c-0.65,0.17-1.253,0.366-1.851,0.674c-0.737,0.381-0.19,0.649,0.388,0.524
			c2.243-0.485,4.252-1.979,6.488-0.557c0.821,0.522,1.113,1.408,1.167,2.319c0.02,0.332-0.602,2.938-0.932,2.981
			c0.234,0.105,0.469,0.211,0.704,0.316c1.496-1.233,2.177-2.758,0.844-4.383c-1.278-1.557-3.727-1.716-5.547-1.434
			c-0.324,0.05-1.097,0.221-1.14,0.637c-0.076,0.731,0.009,1.401,0.125,2.125c0.644-0.172,1.288-0.345,1.932-0.518
			c-0.252-0.516-0.567-0.879-0.932-1.326c-0.268-0.327-1.941,0.123-1.875,0.594c0.065,0.339,0.1,0.681,0.102,1.026
			c-0.032,0.184-0.064,0.367-0.097,0.551c0.935-0.089,1.056-0.239,0.364-0.448c-0.645-0.337-1.208-0.866-1.745-1.349
			c-0.606,0.223-1.211,0.447-1.817,0.67c0.71,0.327,1.268,0.765,1.875,1.25c0.325,0.26,2.091-0.271,1.875-0.594
			c-0.334-0.499-0.669-0.993-1.057-1.451c-0.606,0.223-1.211,0.447-1.817,0.67c0.442,0.402,0.899,0.765,1.375,1.125
			c0.3,0.227,2.072-0.166,1.875-0.594c-0.206-0.447-0.321-0.885-0.375-1.375C88.422,116.335,86.475,116.719,86.534,117.259
			L86.534,117.259z"/>
	</g>
	<g>
		<path fill="#3F1D00" d="M146.123,120.861c-2.787,2.361,1.616,5.62,3.832,6.224c1.431,0.389,3.482-0.034,4.467-1.218
			c0.687-0.824,1.154-2.87,2.383-2.128c1.496,0.903,2.857,2.252,3.682,3.795c0.368,0.689,2.227,0.022,1.777-0.818
			c-1.197-2.242-4.419-5.605-7.245-4.5c-1.954,0.764-1.21,4.392-4.459,3.507c-0.808-0.22-4.595-2.888-3.183-4.084
			C148.377,120.792,146.808,120.281,146.123,120.861L146.123,120.861z"/>
	</g>
	<g>
		<path fill="#3F1D00" d="M157.283,122.414c-1.862-2.02-8.372-4.315-10.632-1.778c-1.11,1.247,0.644,4.07,1.892,4.666
			c2.062,0.985,4.746-0.837,6.085-2.236c-0.61,0.074-1.222,0.148-1.833,0.222c-0.329,0.451-0.611,0.926-0.907,1.399
			c-0.266,0.426-1.331-1.147-1.333-1.149c-0.613-0.856-1.205-1.812-1.589-2.797c-0.625,0.198-1.249,0.396-1.874,0.595
			c1.406,1.217,2.553,2.664,4.25,3.5c0.353,0.174,1.945-0.012,1.874-0.595c-0.154-1.261-0.955-2.08-1.933-2.828
			c-0.566,0.242-1.132,0.483-1.698,0.725c1.27,0.193,2.449,0.619,3.625,1.125c0.376,0.161,2.063-0.487,1.698-0.725
			c-1.263-0.822-2.628-1.39-4-2c-0.51,0.25-1.02,0.5-1.529,0.75c1.759,0.115,3.161,1.204,4.713,1.923
			c0.528,0.244,2.077-0.552,1.816-0.673c-1.771-0.82-3.284-1.947-5.287-2.077c-0.231-0.015-1.943,0.566-1.529,0.75
			c1.372,0.609,2.738,1.178,4,2c0.566-0.242,1.132-0.483,1.698-0.725c-1.176-0.505-2.355-0.932-3.625-1.125
			c-0.245-0.037-2.162,0.37-1.698,0.725c0.922,0.705,1.671,1.474,1.817,2.672c0.625-0.198,1.249-0.396,1.874-0.595
			c-1.697-0.836-2.844-2.283-4.25-3.5c-0.297-0.257-2.049,0.146-1.874,0.595c0.642,1.65,1.857,3.978,3.677,4.478
			c2.038,0.56,3.047-1.478,3.994-2.775c0.209-0.287-1.538-0.086-1.833,0.222c-0.741,0.773-1.691,1.837-2.964,1.229
			c-0.479-0.229-0.767-0.978-1.002-1.418c-0.56-1.048-1.239-2.624,0.542-2.452c1.948,0.188,4.655,1.063,6.019,2.543
			C155.815,123.465,157.616,122.775,157.283,122.414L157.283,122.414z"/>
	</g>
	<g>
		<path fill="#3F1D00" d="M89.901,189.523c9.579,0.451,19.043,1.849,28.5,3.375c7.148,1.153,16.034,2.915,23.134,0.826
			c1.169-0.344,0.856-1.546-0.32-1.199c-7.188,2.115-16.709-0.051-23.973-1.224c-8.836-1.426-17.695-2.653-26.644-3.075
			C89.733,188.186,88.591,189.462,89.901,189.523L89.901,189.523z"/>
	</g>
	<g>
		<path fill="#3F1D00" d="M114.338,162.312c-0.069-0.013-0.14-0.025-0.21-0.038c-0.333-0.021-0.33-0.003,0.008,0.055
			c-0.154,0.324-0.309,0.649-0.462,0.974c0.119,0.022,0.239,0.026,0.361,0.013c-0.183-0.372-0.364-0.744-0.547-1.116
			c-0.778,0.57-2.105,0.479-3.023,0.485c0.028,0.445,0.056,0.89,0.083,1.335c1.202-0.31,2.421-0.407,3.642-0.131
			c0.48,0.109,1.023,0.024,1.365-0.366c0.271-0.309,0.205-0.81-0.244-0.911c-1.723-0.391-3.4-0.321-5.108,0.119
			c-0.998,0.257-1.03,1.342,0.083,1.335c1.499-0.01,3.222-0.095,4.477-1.015c0.722-0.529,0.145-1.121-0.547-1.116
			c-0.499,0.004-0.923,0.085-1.389,0.263c-0.396,0.151-0.687,0.578-0.462,0.974c0.297,0.521,0.79,0.425,1.298,0.517
			C114.594,163.855,115.63,162.546,114.338,162.312L114.338,162.312z"/>
	</g>
	<g>
		<path fill="#3F1D00" d="M128.546,171.096c1.148,0.155,2.238,0.35,3.388,0.088c0.378-0.087,1.126-0.665,0.699-1.115
			c-0.904-0.952-2.312-1.033-3.553-1.046c-0.706-0.008-1.602,1.023-0.634,1.394c0.999,0.382,2.047,0.435,3.1,0.555
			c0.959,0.109,1.97-1.219,0.658-1.441c-1.326-0.225-2.673-0.275-4-0.5c-0.136,0.482-0.272,0.966-0.409,1.448
			c1.333-0.007,2.669-0.111,4.001-0.007c0.47,0.037,1.042-0.134,1.256-0.6c0.196-0.428-0.176-0.809-0.598-0.842
			c-1.499-0.117-2.998-0.016-4.499-0.007c-0.9,0.005-1.569,1.252-0.409,1.448c1.326,0.225,2.673,0.275,4,0.5
			c0.22-0.48,0.438-0.961,0.658-1.441c-0.895-0.103-1.801-0.121-2.65-0.445c-0.212,0.465-0.423,0.929-0.634,1.394
			c0.575,0.006,1.517,0,1.947,0.454c0.233-0.372,0.467-0.743,0.699-1.115c-0.766,0.175-1.599-0.059-2.362-0.162
			C128.23,169.522,127.244,170.92,128.546,171.096L128.546,171.096z"/>
	</g>
	<g>
		<path fill="#3F1D00" d="M92.507,114.925c4.247,0.5,7.837,3.001,10.586,6.166c0.343,0.394,2.164-0.279,1.814-0.681
			c-2.915-3.354-6.694-5.809-11.164-6.334C93.288,114.021,91.504,114.807,92.507,114.925L92.507,114.925z"/>
	</g>
	<g>
		<path fill="#3F1D00" d="M139.774,124.087c2.53-1.167,5.213-1.862,7.873-2.662c1.155-0.348,0.873-1.453-0.295-1.102
			c-2.829,0.851-5.685,1.598-8.377,2.838C137.762,123.722,138.863,124.507,139.774,124.087L139.774,124.087z"/>
	</g>
	<g>
		<path fill="#3F1D00" d="M85.659,117.134c0.204,0.544,0.47,0.739,1.074,0.722c0.328-0.009,0.888-0.225,1.019-0.563
			c0.051-0.133,0.087-0.242,0.097-0.385c0.062-0.924-1.895-0.596-1.947,0.186c0.008,0.017,0.015,0.034,0.023,0.05
			c0.339-0.188,0.679-0.375,1.018-0.563c-0.014,0-0.027,0-0.041,0.001c0.262,0.077,0.523,0.154,0.785,0.231
			c-0.06-0.046-0.092-0.112-0.095-0.196C87.292,115.818,85.374,116.372,85.659,117.134L85.659,117.134z"/>
	</g>
	<g>
		<path fill="#3F1D00" d="M148.274,120.959c-0.062,2.243,1.22,3.528,2.976,4.704c0.111-0.357,0.222-0.714,0.332-1.071
			c-0.072,0.053-0.151,0.091-0.236,0.112c-1.061,0.095-1.517,1.34-0.191,1.34c0.25,0,0.5,0,0.75,0
			c-0.107-0.401-0.215-0.802-0.322-1.203c-0.462,0.186-0.652,0.173-0.945-0.258c-0.464-0.684-2.314,0.033-1.773,0.831
			c0.845,1.246,2.34,0.979,3.555,0.492c0.931-0.373,0.524-1.203-0.322-1.203c-0.25,0-0.5,0-0.75,0
			c-0.063,0.447-0.128,0.894-0.191,1.34c0.466-0.041,0.854-0.166,1.264-0.387c0.374-0.202,0.854-0.721,0.332-1.071
			c-1.419-0.95-2.575-1.952-2.524-3.796C150.253,119.82,148.297,120.138,148.274,120.959L148.274,120.959z"/>
	</g>
</g>
<g id="Layer_2">
	<path fill="#3F1D00" d="M200,57.5c-4-4.5-11.5-8-13-8s1.5-4.5-3-8.5s-3.5-11.5-12-16.5s-7.5-7.5-13-8.5s-4.5-6-10-8s-5-8-37-8
		S81.5,7.5,80,7.5c0,0-11.5-2-12.5,1c0,0-21.5,0-31.5,12.5S23,52.5,23,52.5c-1.5,7-6,13-8,15s0.5,2-0.5,6S5.5,95.5,6,99
		s-1.5,9-1.5,11s0,17.5,2.5,20.5s12,33.5,11.5,38s8,13.5,4.5,15s-1.5,7,0.5,8.5s1.5,3.5,3,3.5s6.5-13,6.5-13s15,25.5,22.5,32
		s24,24,26.5,24.5s26.5,17.5,49,3s31.5-24.5,32-27s16.5-43,16.5-61.5c0,0,5,9.5,6.5,7s3-8.5,2.5-11.5s5-19.5,6-22s5,6.5,3-6
		s-6-13.5-3.5-15s7.5-8.5,2.5-17s5-15.5,1.5-21.5S204,62,200,57.5z M133.5,215.5c-2.5,1.5-6-1-8.5-2.5s5-8.5,5-10.5
		s-22.5-1-23.5,0.5s-5.5,9-8,9.5s-4-1-7-2s-7.5-13-7.5-15s8-7.5,8-7.5s14.844-4.303,18-4.5c8-0.5,18,2.5,18,2.5s13.5,4,15,4
		s5,5.5,3.5,6.5s1,4,2,6.5S136,214,133.5,215.5z M173.5,176c0,2.5-4.5,21.5-6.5,22.5s-6,0.5-7.5-0.5s-12-18-15-19.5s-9-9-15.5-6
		s-9.5-0.5-9.5-0.5s-9.5-8.5-23,1.5s-15.5,5-15.5,11s-6.5,9.5-9.5,9.5S48,185.5,47,182s-2-41.5-6.5-43c0,0,3-15,3.5-17.5
		c0,0,15-26.5,17-35S58,74,58,74s-1.5-13,8-18s28-10.5,41.5,0s0-2,0-2s4.5-0.971,3.5-3.985c0,0,5.5,8.485,25.5,10.485
		s27.5,0.5,33.5,8s8,23.5,6.5,32s-2.5,38.5,1.5,45C178,145.5,173.5,173.5,173.5,176z"/>
</g>
</svg>
