<?xml version="1.0" encoding="utf-8"?>
<!-- Generator: Adobe Illustrator 14.0.0, SVG Export Plug-In . SVG Version: 6.00 Build 43363)  -->
<!DOCTYPE svg PUBLIC "-//W3C//DTD SVG 1.1 Tiny//EN" "http://www.w3.org/Graphics/SVG/1.1/DTD/svg11-tiny.dtd">
<svg version="1.1" baseProfile="tiny" xmlns="http://www.w3.org/2000/svg" xmlns:xlink="http://www.w3.org/1999/xlink" x="0px"
	 y="0px" width="200px" height="250px" viewBox="0 0 200 250" xml:space="preserve">
<g id="Layer_5">
</g>
<g id="Layer_2">
	<path fill="#FFEBDE" d="M22.574,131.043c0.419,2.93,4.183,13.387,3.765,17.151c-0.418,3.764,2.928,16.731,12.967,17.986
		c0,0,4.183,2.509,4.183,5.02c0,2.509,41.831,43.504,46.431,44.341c4.602,0.835,40.157-1.256,43.503-3.766
		s20.078-21.333,21.333-24.681c1.254-3.347,3.347-8.783,3.347-8.783s7.946-71.947,10.457-74.457
		c2.509-2.51-4.184-25.516-4.184-25.516s-65.255-23.007-70.274-22.17c-5.02,0.838-50.195,16.314-53.96,19.243
		c-3.764,2.928-10.457,19.241-12.966,27.188C24.667,110.547,22.574,131.043,22.574,131.043z"/>
	<path fill="#513F0C" d="M194.493,94.653c-0.417-7.947-7.109-11.712-8.365-12.13c-1.254-0.418-1.254-0.418-1.254-0.418
		s2.929-2.51,1.254-10.875c-1.674-8.366-10.456-15.058-12.548-18.405s-11.713-7.112-13.386-10.876
		c-1.673-3.765-10.877-12.131-13.805-12.131c0,0-1.254-5.02-12.549-8.784c0,0-7.11-10.457-20.915-8.366
		c0,0-7.11-15.477-23.424-8.784c0,0-6.692,2.091-6.692,7.111c0,0-17.988-5.019-24.68,1.673c0,0-7.948,3.764-7.948,5.438
		c0-0.63,0-1.673,0-1.673s-20.497,6.693-19.66,13.805c0,0-2.092,10.876-4.183,12.549c-2.092,1.673-8.368,1.673-7.112,12.13
		c0.402,3.348-9.622,20.079-10.458,23.843C7.934,82.523,4.169,94.235,4.169,98s2.929,10.039,2.51,11.294
		c-0.419,1.254-2.51,8.366-0.837,10.876s8.784,10.038,8.784,14.222s-2.508,14.641-0.417,15.896c2.092,1.255,7.948-5.856,7.948-5.856
		s2.51-2.092,2.928-5.857c0.419-3.764,2.092-7.528,2.092-7.528s6.274,4.183,6.693,7.528c0.418,3.347,7.11,25.518,6.274,29.7
		s7.111,28.024,10.039,30.953c2.929,2.93,15.895,16.314,17.15,17.568c1.254,1.255,13.386,15.479,17.987,17.987
		c4.601,2.511,28.445,8.365,31.79,6.692c3.346-1.673,12.131-3.764,18.823-12.548c6.692-8.785,8.366-19.661,12.55-25.936
		c4.182-6.274,8.365-13.804,9.201-16.731c0.838-2.928,6.273-45.175,7.948-57.306c0,0,6.275-2.928,9.203-7.947
		c2.927-5.02,5.019-2.929,10.875-7.53C191.566,108.875,194.912,102.601,194.493,94.653z M120.039,204.246
		c-9.621,2.93-12.549,1.256-16.314,0.837c-3.764-0.418-14.222-3.764-15.478-6.692c-1.254-2.929-4.183-7.529-4.183-7.529
		l10.458-2.929c5.438-0.418,16.314-2.51,19.243-2.51c2.928,0,15.894-1.254,17.148-0.836
		C132.169,185.005,129.66,201.317,120.039,204.246z M161.867,133.977c-0.418,1.674-1.674,12.549-1.674,15.896
		s-3.346,25.935-3.346,27.608s-9.204,15.059-9.204,15.059s-2.509-6.693-2.928-9.621c-0.418-2.928-17.568-10.457-20.496-11.712
		c-2.928-1.256-4.602,2.928-5.855,3.765c-1.256,0.837-14.223,0-16.732-0.837c-2.51-0.838-9.203-0.838-11.713-0.418
		c-2.51,0.419-11.712,12.13-12.131,13.385c-0.418,1.254-3.346,7.529-3.346,8.784s-1.673,1.674-3.764,1.255
		c-2.092-0.42-6.275-1.255-8.366-4.601c-2.092-3.346-14.222-17.15-15.895-21.752c-1.673-4.603-8.366-30.117-8.366-37.228
		s0-9.622,0-9.622s0.836-35.559,3.346-26.356s22.169,7.53,22.169,7.53c-2.091-1.674-6.693-15.059-6.693-15.059
		c12.968,16.731,25.517,9.621,25.517,9.621c-10.875-3.346-9.622-18.823-9.622-18.823C75.697,98.837,89.5,99.255,89.5,99.255
		c-11.712-6.275-7.11-22.17-7.11-22.17C80.298,90.89,95.358,98,95.358,98c-14.222-12.549,12.966-9.203,8.365-8.366
		s-4.601,1.673-4.601,1.673c-0.836,2.51,16.313,3.765,16.313,3.765s5.02-2.928,0.418,2.092s-16.313,0-16.313,0
		c0,3.347,8.366,5.856,14.221,6.275c5.855,0.418,10.876-3.764,14.642-11.711c3.764-7.948,6.273-15.477,5.855-12.549
		c-0.418,2.927,4.601,6.693,5.02,10.039s5.438,9.203,5.438,10.876s7.947,6.692,8.785,5.019c0.836-1.673,5.02-2.091,6.692-2.091
		s0.419,11.294,0.419,13.386S162.284,132.305,161.867,133.977z"/>
</g>
</svg>
