<?xml version="1.0" encoding="utf-8"?>
<!-- Generator: Adobe Illustrator 14.0.0, SVG Export Plug-In . SVG Version: 6.00 Build 43363)  -->
<!DOCTYPE svg PUBLIC "-//W3C//DTD SVG 1.1 Tiny//EN" "http://www.w3.org/Graphics/SVG/1.1/DTD/svg11-tiny.dtd">
<svg version="1.1" baseProfile="tiny" xmlns="http://www.w3.org/2000/svg" xmlns:xlink="http://www.w3.org/1999/xlink" x="0px"
	 y="0px" width="200px" height="250px" viewBox="0 0 200 250" xml:space="preserve">
<g id="Layer_2" display="none">
	
		<image display="inline" width="2592" height="1936" xlink:href="../../../../Pictures/iPhone/IMG_0602 1.JPG"  transform="matrix(1.718512e-09 0.1441 -0.1441 1.718512e-09 245.3535 -41.8232)">
	</image>
</g>
<g id="Layer_4">
	<path fill="#FFE4CF" d="M48.667,114.334c0,0-2.333-0.666-6-0.833s-5.833-1.167-6.5,2.333s-1.333,7.667-0.833,9
		s12.333,26.665,14.5,27.332S48.667,114.334,48.667,114.334z"/>
	<path fill="#FFE4CF" d="M164.334,159.5c0,0,3.167-1.167,4.5-2.667s7.001-12.333,7.667-13.5s6.666-9.667,4.833-21.667
		c0,0-2.001-8.833-2.667-8.833S165.501,127.667,165.334,129S164.334,159.5,164.334,159.5z"/>
	<path fill="#FFDDBF" d="M45.649,116.046c0,0,1.068,18.158,0.534,25.101s4.273,36.852,5.341,40.59s11.215,20.295,13.352,25.102
		s18.693,28.84,30.977,28.84s21.363-3.205,29.374-10.147c0,0,13.885-12.818,16.556-16.022s13.352-15.488,15.488-18.692
		s6.943-14.419,6.943-17.624s1.602-18.159,2.67-22.432s2.137-21.362,2.671-27.771s9.612-41.124,6.942-49.135
		s-14.954-32.579-18.692-33.647s-37.92-6.409-44.862-6.409s-43.259,0.534-46.464,2.136S46.183,51.423,45.115,55.696
		s-5.34,25.101-5.875,31.51s3.204,17.625,3.738,20.295S45.649,116.046,45.649,116.046"/>
</g>
<g id="Layer_1">
	<path fill="#5F3A00" d="M146.056,41.276c0,0-41.124,18.692-77.975,14.42c-36.851-4.272-22.965-17.09-19.227-18.158
		s18.693-13.352,20.295-13.886s26.169-12.283,41.657-11.215s30.442,10.147,36.317,13.886s22.965,17.09,23.499,21.363
		s14.421,23.5,12.284,38.988s-3.205,24.033-2.671,26.704s-2.671,8.544-5.341,12.283s-4.806,6.41-5.874,8.012
		c0,0-2.67-25.636-0.534-34.181s4.273-16.022,0.534-20.829s-10.147-22.965-10.147-27.238S151.931,55.696,146.056,41.276z"/>
</g>
<g id="Layer_3">
	<path fill="#5F3A00" d="M56.866,49.821c0,6.089-9.079,5.341-10.147,9.079s-6.943,20.829-3.205,34.181s2.136,21.363,2.136,25.636
		s-0.534,7.477-0.534,7.477s-0.535-6.408-1.603-12.283S32.832,89.876,33.9,77.059s8.011-30.442,14.42-31.51
		S56.866,48.753,56.866,49.821z"/>
</g>
<g id="Layer_5">
	<g>
		<path fill="#5F4B00" d="M84.167,113.834c-5.167-2.667-12.833-3.5-18.5-3.667c-4.833-0.167-9,0.333-13,3.167"/>
		<g>
			<path fill="#5F4B00" d="M85.429,111.675c-9.701-4.584-24.603-6.547-34.023-0.5c-2.703,1.735-0.199,6.065,2.523,4.317
				c7.791-5.001,20.901-3.316,28.977,0.5C85.804,117.362,88.343,113.052,85.429,111.675L85.429,111.675z"/>
		</g>
	</g>
	<g>
		<path fill="#5F4B00" d="M120.834,114.667c3.167-0.333,6.167-1.833,9.334-2.167c3.166-0.333,6.5-0.167,9.5-0.167
			c7-0.333,12.5-0.333,17.666,4.333"/>
		<g>
			<path fill="#5F4B00" d="M121.499,117.078c2.646-0.426,5.164-1.273,7.763-1.913c2.799-0.69,6.021-0.378,8.881-0.341
				c6.33,0.081,12.182-0.745,17.424,3.611c2.46,2.045,6.018-1.473,3.535-3.535c-4.878-4.054-10.054-5.221-16.305-5.18
				c-3.671,0.024-7.365,0.008-11.034,0.153c-4.002,0.157-7.678,1.753-11.594,2.384C116.992,112.768,118.346,117.585,121.499,117.078
				L121.499,117.078z"/>
		</g>
	</g>
	<g>
		<path fill="#5F2900" d="M75.334,191.001c4.543-0.478,8.458,2.629,12.534,4.149c4.278,1.596,8.8,1.631,13.301,1.705
			c4.697,0.077,9.55,0.708,14.144-0.539c3.878-1.053,8.212-3.345,11.375-5.795c0.509-0.395-0.204-1.097-0.707-0.707
			c-3.255,2.521-7.744,4.672-11.694,5.744c-4.693,1.273-10.147,0.306-14.953,0.276c-4.815-0.029-9.362-0.674-13.745-2.739
			c-3.248-1.529-6.532-3.486-10.255-3.095C74.7,190.067,74.693,191.068,75.334,191.001L75.334,191.001z"/>
	</g>
	<g>
		<path fill="#3A4C3F" d="M69.186,118.202c-0.934,3.066-2.173,7.216,1.591,8.736c3.214,1.298,8.022,0.45,9.282-3.053
			c1.54-4.282-1.643-6.954-5.507-7.414c-5.049-0.601-10.582,1.149-14.071,4.843c-0.442,0.468,0.264,1.177,0.707,0.707
			c2.83-2.996,6.477-4.229,10.516-4.565c3.432-0.286,7.615,0.298,7.634,4.561c0.019,4.306-4.49,4.754-7.784,4.104
			c-3.723-0.735-2.137-5.244-1.403-7.654C70.338,117.849,69.373,117.586,69.186,118.202L69.186,118.202z"/>
	</g>
	<g>
		<path fill="#3A4C3F" d="M129.001,123.668c-0.107,3.99,2.42,5.67,6.262,5.564c3.447-0.095,6.634-2.847,6.158-6.475
			c-0.328-2.498-2.92-3.589-5.137-3.768c-2.98-0.239-5.96,1.374-7.215,4.092c-0.269,0.582,0.593,1.09,0.863,0.505
			c1.594-3.451,7.003-5.1,9.846-2.108c2.225,2.341-0.661,5.729-2.916,6.48c-1.517,0.506-3.234,0.331-4.726-0.149
			c-1.894-0.609-2.183-2.411-2.136-4.142C130.019,123.023,129.019,123.024,129.001,123.668L129.001,123.668z"/>
	</g>
	<g>
		<path fill="#FFB43F" d="M125.92,122.266c6.987-4.256,16.308-2.919,22.562,2.088c0.498,0.399,1.211-0.304,0.707-0.707
			c-6.602-5.287-16.377-6.75-23.772-2.245C124.866,121.738,125.368,122.603,125.92,122.266L125.92,122.266z"/>
	</g>
	<g>
		<path fill="#FFB43F" d="M112.168,169.668c-3.359-0.267-5.949,0.807-8.021,3.479c-0.39,0.503,0.312,1.216,0.707,0.707
			c1.917-2.474,4.2-3.434,7.313-3.187C112.812,170.719,112.807,169.719,112.168,169.668L112.168,169.668z"/>
	</g>
	<g>
		<path fill="#FFB43F" d="M88.316,172.035c-0.232-0.9-0.528-1.825-1.128-2.554c-0.587-0.715-1.367-1.139-2.221-1.463
			c-0.604-0.229-0.863,0.738-0.266,0.965c1.588,0.602,2.241,1.728,2.651,3.317C87.513,172.925,88.478,172.66,88.316,172.035
			L88.316,172.035z"/>
	</g>
	<g>
		<path fill="#FFB43F" d="M60.266,121.92c1.855-4.065,6.891-5.081,10.912-5.454c4.011-0.372,8.246-0.064,12.028,1.364
			c12.18,4.599,10.143,20.507,5.03,29.753c-0.312,0.564,0.551,1.068,0.863,0.504c5.309-9.601,7.154-24.833-4.278-30.63
			c-4.288-2.174-9.546-2.37-14.24-1.935c-4.181,0.388-9.278,1.728-11.179,5.894C59.137,121.998,59.999,122.506,60.266,121.92
			L60.266,121.92z"/>
	</g>
	<g>
		<path fill="#FFB43F" d="M85.02,156.202c-0.591,1.938-1.312,3.793-2.206,5.614c-0.589,1.201-1.422,2.461-1.592,3.823
			c-0.292,2.329,1.726,3.032,3.647,3.511c0.626,0.155,0.891-0.809,0.266-0.965c-0.979-0.243-2.166-0.452-2.809-1.323
			c-0.718-0.974,0.574-3.043,0.994-3.84c1.108-2.104,1.972-4.282,2.665-6.555C86.172,155.85,85.207,155.587,85.02,156.202
			L85.02,156.202z"/>
	</g>
	<g>
		<path fill="#FFB43F" d="M114.519,159.301c0.256,1.112,0.818,1.966,1.466,2.893c1.176,1.682,0.888,3.54,0.851,5.475
			c-0.013,0.646,0.987,0.644,1,0c0.03-1.583,0.26-3.192-0.283-4.713c-0.513-1.435-1.717-2.39-2.068-3.92
			C115.339,158.406,114.374,158.673,114.519,159.301L114.519,159.301z"/>
	</g>
	<g>
		<path fill="#FFD25F" d="M62.168,179.335c0.049-1.984,1.218-3.287,2.687-4.479c0.501-0.406-0.211-1.109-0.707-0.707
			c-1.688,1.369-2.924,2.937-2.98,5.187C61.152,179.98,62.152,179.979,62.168,179.335L62.168,179.335z"/>
	</g>
	<g>
		<path fill="#FFB43F" d="M133.481,177.855c1.66,1.813,3.278,3.643,4.588,5.731c0.342,0.545,1.207,0.044,0.863-0.504
			c-1.354-2.161-3.026-4.059-4.744-5.935C133.752,176.672,133.047,177.381,133.481,177.855L133.481,177.855z"/>
	</g>
	<g>
		<path fill="#FFD25F" d="M141.134,185.019c-0.667-0.129-1.407-0.11-1.897,0.427c-0.415,0.453-0.46,1.077-0.373,1.655
			c0.153,1.018,1.197,2.26,2.284,1.514c0.838-0.574,1.728-2.461,0.57-3.152c-0.75-0.448-1.971-0.059-2.527,0.544
			c-0.302,0.326-0.398,0.771-0.176,1.169c0.286,0.511,0.996,0.694,1.521,0.809c0.251,0.055,0.56-0.071,0.615-0.35
			c0.074-0.372,0.163-0.753,0.185-1.133c0.014-0.248-0.239-0.532-0.5-0.5c-0.396,0.049-0.734,0.217-0.932,0.582
			c0.311,0.084,0.621,0.168,0.932,0.252c0-0.075,0.003-0.151,0.005-0.227c0.003-0.085,0.009-0.169,0.016-0.253
			c0.02-0.245,0.091,0.027-0.251,0.109c-0.128-0.017-0.257-0.033-0.385-0.05c0.075,0.046,0.112,0.402,0.184,0.505
			c0.365,0.525,1.233,0.026,0.863-0.504c-0.057-0.082-0.053-0.21-0.075-0.308c-0.034-0.152-0.139-0.274-0.233-0.392
			c-0.189-0.232-0.652-0.342-0.865-0.081c-0.267,0.326-0.257,0.795-0.258,1.199c-0.002,0.488,0.691,0.694,0.932,0.252
			c0.01-0.018,0.041-0.083,0.068-0.086c-0.167-0.167-0.333-0.333-0.5-0.5c-0.017,0.29-0.093,0.583-0.149,0.867
			c0.205-0.116,0.41-0.233,0.615-0.35c-0.25-0.054-0.507-0.112-0.738-0.227c-0.092-0.045-0.133-0.075-0.159-0.099
			c-0.038-0.034-0.023-0.018-0.027-0.031c0.03,0.111-0.027,0.104,0.049,0.021c0.087-0.095,0.157-0.138,0.341-0.231
			c0.1-0.051,0.267-0.105,0.449-0.146c0.131-0.028,0.028-0.012,0.159-0.021c0.047-0.003,0.288,0.015,0.187-0.002
			c0.036,0.006,0.226,0.073,0.117,0.023c0.069,0.031,0.076,0.049,0.054,0.018c0.051,0.068,0.057,0.113,0.025,0.273
			c-0.079,0.406-0.425,1.119-0.739,1.229c-0.017,0.006-0.113,0.008-0.066,0.016c-0.105-0.019-0.072-0.013-0.188-0.092
			c-0.074-0.051-0.195-0.235-0.275-0.387c-0.176-0.337-0.221-0.751-0.109-1.095c0.106-0.323,0.577-0.366,0.989-0.286
			C141.498,186.105,141.767,185.142,141.134,185.019L141.134,185.019z"/>
	</g>
	<g>
		<path fill="#3A4C3F" d="M70.516,117.198c-0.231,0.844-0.431,1.587-0.351,2.466c0.058,0.633,1.04,0.649,1,0
			c-0.034-0.559-0.123-1.109-0.167-1.667c-0.041-0.521-0.632-0.651-0.932-0.252c-1.309,1.737-2.095,7.402,0.799,8.067
			c0.627,0.145,0.894-0.819,0.266-0.964c-2.075-0.478-1.103-5.401-0.201-6.599c-0.311-0.084-0.621-0.168-0.932-0.252
			c0.044,0.558,0.133,1.108,0.167,1.667c0.333,0,0.667,0,1,0c-0.071-0.776,0.113-1.46,0.315-2.201
			C71.651,116.84,70.686,116.576,70.516,117.198L70.516,117.198z"/>
	</g>
	<g>
		<path fill="#3A4C3F" d="M71.832,121.665c-0.002-0.018-0.039,1.024,0.055,0.601c1.329-1.373,2.341-1.638,3.036-0.793
			c-0.048,0.11-0.075,0.03-0.083-0.239c-0.082-0.312,0.214-1.145,0.318-1.308c-1.309,0.169-2.618,0.337-3.926,0.506
			c0.363,0.313-0.188-0.396-0.22-0.497c-0.034-0.109,0.06-1.043-0.062-0.639c0.19-0.632,0.067-0.181-0.034-0.003
			c-0.121,0.213-0.264,0.414-0.402,0.616c-0.544,0.791-1.147,1.612-1.321,2.581c-0.64,3.567,3.343,5.426,6.377,4.81
			c2.603-0.528,4.381-2.965,4.399-5.564c0.022-3.148-2.75-4.995-5.636-5.071c-3.226-0.085-3.218,4.915,0,5
			c0.093,0.002,0.737,0.126,0.439-0.001c0.125,0.059,0.245,0.127,0.359,0.204c-0.539-0.334,0.164,0.321-0.233-0.23
			c0.134,0.243,0.132,0.204-0.007-0.116c0.062,0.147,0.15,0.715,0.068,0.034c0.01,0.121,0.013,0.242,0.009,0.363
			c-0.004,0.611,0.124-0.537-0.026,0.061c-0.089,0.263-0.071,0.238,0.055-0.073c-0.077,0.173-0.183,0.331-0.288,0.487
			c0.199-0.253,0.205-0.277,0.018-0.072c-0.43,0.441,0.418-0.25-0.117,0.072c-0.25,0.126-0.236,0.122,0.042-0.013
			c-0.611,0.215,0.498,0.008-0.186,0.051c-0.292-0.017-0.308-0.004-0.05,0.039c-0.292-0.039-0.573-0.143-0.851-0.238
			c0.191,0.076,0.169,0.053-0.066-0.067c0.283,0.164,0.436,0.443,0.537,0.744c0.075,0.255,0.077,0.51,0.004,0.766
			c0.093-0.52-0.271,0.51-0.019,0c0.273-0.552,0.678-1.042,1.02-1.551c1.081-1.612,1.336-3.841-0.274-5.226
			c-1.247-1.073-3.014-0.922-3.926,0.506c-1.467,2.296-1.274,5.461,0.465,7.512c1,1.18,2.658,1.269,3.954,0.639
			c1.382-0.673,1.714-2.533,1.573-3.889c-0.141-1.355-1.03-2.5-2.5-2.5C73.076,119.165,71.69,120.307,71.832,121.665L71.832,121.665
			z"/>
	</g>
	<g>
		<path fill="#3A4C3F" d="M130.507,120.569c-1.74,2.401-1.102,5.179,1.175,6.888c1.803,1.354,4.714,1.397,6.621,0.287
			c3.057-1.78,2.752-6.283-0.096-8.076c-1.976-1.244-4.584-0.283-5.78,1.534c-0.468,0.712-0.541,1.6-0.648,2.414
			c-0.035,0.291-0.033,0.269,0.007-0.066c-0.022,0.128-0.053,0.254-0.093,0.378c0.114-0.407,1.094-0.852,0.475-0.676
			c-3.095,0.882-1.777,5.708,1.33,4.822c1.134-0.324,2.145-0.97,2.697-2.041c0.224-0.435,0.367-0.875,0.443-1.351
			c0.057-0.352,0.098-0.711,0.141-1.066c-0.077,0.633,0.03-0.01,0.062-0.125c-0.163,0.591-0.635,0.723-1.157,0.494
			c-0.174-0.076-0.188-0.524-0.184-0.141c-0.02,0.287-0.01,0.229,0.029-0.171c-0.102,0.527,0.275-0.496,0.036-0.043
			c-0.237,0.448,0.395-0.423,0.042-0.068c0.442-0.445,0.259-0.187,0.049-0.064c-0.235,0.116-0.169,0.09,0.199-0.077
			c-0.141,0.053-0.288,0.084-0.434,0.117c0.769-0.169-0.026-0.017-0.268-0.022c-0.724-0.018,0.42,0.117-0.283-0.053
			c-0.154-0.038-0.304-0.092-0.453-0.146c0.653,0.237,0.194,0.071,0.04-0.014c-0.597-0.332,0.276,0.319-0.183-0.155
			c0.237,0.329,0.282,0.386,0.138,0.172c-0.278-0.419,0.182,0.573,0.031,0.092c-0.057-0.262-0.049-0.181,0.025,0.243
			c-0.039-0.526-0.142,0.599-0.019,0.05c0.125-0.556-0.266,0.486,0.021-0.074c0.098-0.191,0.227-0.365,0.352-0.538
			c0.802-1.105,0.192-2.783-0.896-3.42C132.664,118.933,131.305,119.468,130.507,120.569L130.507,120.569z"/>
	</g>
</g>
<g id="Layer_6">
</g>
</svg>
