<?xml version="1.0" encoding="utf-8"?>
<!-- Generator: Adobe Illustrator 14.0.0, SVG Export Plug-In . SVG Version: 6.00 Build 43363)  -->
<!DOCTYPE svg PUBLIC "-//W3C//DTD SVG 1.1 Tiny//EN" "http://www.w3.org/Graphics/SVG/1.1/DTD/svg11-tiny.dtd">
<svg version="1.1" baseProfile="tiny" xmlns="http://www.w3.org/2000/svg" xmlns:xlink="http://www.w3.org/1999/xlink" x="0px"
	 y="0px" width="200px" height="250px" viewBox="0 0 200 250" xml:space="preserve">
<g id="Layer_3">
</g>
<g id="Layer_1">
	<path fill="#C2C2C2" d="M47.115,84.757c0,0,2.111,20.586,3.959,25.601s6.334,14.516,9.501,19.002
		c3.167,4.487,10.293,12.934,13.724,16.101c0,0,5.015,10.029,10.557,12.668c5.542,2.64,9.237,1.318,13.196,0
		c3.958-1.32,3.43-1.849,7.39-5.016c0,0,10.292-5.014,20.058-15.57c9.765-10.557,10.558-14.78,11.085-20.586
		c0.528-5.806,0.791-10.557,2.111-13.988c1.318-3.431,8.445-30.615,8.445-30.615l-26.92-50.409H77.73L44.74,58.893L47.115,84.757z"
		/>
	<path fill="#706F6A" stroke="#706F6A" stroke-width="2" d="M88.003,159.269c0,0,8.729,12.847,7.938,23.403
		c-0.792,10.558-0.04,21.379-7.938,30.878c-7.898,9.502,0,1.056,0,1.056s-5.787,32.219-13.177,34.311c0,0,3.695-2.902,0-7.125
		c0,0,1.583,4.223-5.806,4.751c0,0,3.167-2.377,0-11.878c0,0-0.792,8.711-14.252,6.334c0,0,9.237-2.111,9.237-8.708
		c0-6.6-0.264-1.321-0.264-1.321s-1.056,5.279-3.431,3.96c0,0-5.278-5.278-6.862-7.39c0,0-6.862-5.543-2.375,7.918
		c0,0-19.794-32.462-20.058-53.576c-0.264-21.113,2.903-73.107,2.111-81.816c-0.792-8.709-6.07-44.075,14.516-66.772
		C68.229,10.595,78.786-0.226,93.565,6.108c0,0,8.444-6.745,22.696-1.789c14.252,4.956,31.671,24.223,38.798,45.336
		c7.125,21.114,13.459,73.898,16.626,87.622c3.168,13.724,13.196,60.967,13.462,63.078c0.263,2.112-1.584,25.072-1.584,29.03
		c0,0-3.534-31.805-7.168-37.425c-0.338-0.522-0.676-0.82-1.015-0.844c-3.958-0.263-4.485,43.038-11.876,51.465
		c0,0,5.014-22.697,1.319-25.864c0,0-1.319,17.946-7.653,25.073c0,0,1.319-23.226-3.694-15.572c0,0-2.904,16.891-9.238,19.795
		c-6.335,2.902-5.014,1.056-5.014,1.056s5.541-11.085,1.056-9.501c0,0-4.751,8.708-7.391,10.029c0,0,5.279-10.558,1.319-7.127
		c-3.958,3.432-10.292,6.599-10.292,6.599s24.809-18.739,17.946-31.671c0,0-3.432-76.272-5.278-75.217c0,0,4.485-45.66-0.265-55.953
		c-4.751-10.293-3.167-16.891-7.653-19.794c0,0-0.137,11.583,4.223,17.155c0,0-8.71-12.668-8.973-20.586
		c0,0-0.266,18.738,5.014,23.489c0,0-20.059-11.612-22.961-34.837c0,0-3.167-8.709-7.127-10.821
		c-3.958-2.111-6.597-4.487-6.597-4.487s-1.319,32.198-19.794,44.075c0,0,11.612-16.363,7.917-15.308
		c0,0-9.765,15.043-12.141,16.099c0,0,5.015-9.237,6.07-15.571c0,0-6.862,12.14-11.876,15.308c0,0,4.487-10.029,3.959-11.349
		c-0.528-1.319-10.969,18.827-18.021,27.756c0,0,0.375,15.012,4.562,21.598c4.187,6.586,11.045,17.553,16.211,23.029
		s3.065,1.808,5.166,5.476c2.102,3.668,0,0,0,0S80.442,159.615,88.003,159.269z"/>
</g>
<g id="Layer_2">
</g>
</svg>
