<?xml version="1.0" encoding="utf-8"?>
<!-- Generator: Adobe Illustrator 14.0.0, SVG Export Plug-In . SVG Version: 6.00 Build 43363)  -->
<!DOCTYPE svg PUBLIC "-//W3C//DTD SVG 1.1 Tiny//EN" "http://www.w3.org/Graphics/SVG/1.1/DTD/svg11-tiny.dtd">
<svg version="1.1" baseProfile="tiny" xmlns="http://www.w3.org/2000/svg" xmlns:xlink="http://www.w3.org/1999/xlink" x="0px"
	 y="0px" width="200px" height="250px" viewBox="0 0 200 250" xml:space="preserve">
<g id="Layer_4" display="none">
	
		<image display="inline" width="2592" height="1936" xlink:href="../../../../Pictures/iPhone/IMG_0603 1.JPG"  transform="matrix(1.458397e-09 0.1223 -0.1223 1.458397e-09 219.0781 -35.9829)">
	</image>
	<path display="inline" fill="#FFD69F" d="M149.667,115c1,1.667,3.499,8,3.333,8.833s-1.499,13.333-3.166,14.333s-13.5,2.5-13.5,2.5
		l-0.5-20.167l2.833-8.667L149.667,115z"/>
</g>
<g id="Layer_5">
</g>
<g id="Layer_1">
</g>
<g id="Layer_3">
	<g>
		<path fill="#FFD69F" d="M26.438,122.163c0,0-1.667,5-1.875,6.25c-0.208,1.251,1.666,10,1.666,11.458s0.209,9.792,0.417,11.667
			c0.208,1.875,2.708,8.957,2.708,10.625c0,1.667,2.292,7.707,6.875,8.125c4.583,0.418,15.625,1.251,17.292,0.418
			c1.667-0.835,2.708-31.459,1.667-33.96c-1.042-2.499-25.209-15-25.209-15L26.438,122.163z"/>
		<path fill="#FFD69F" d="M38.312,157.375c0,0,13.542,44.375,15.416,48.126c1.875,3.75,7.708,24.583,24.375,28.334
			c0,0,11.876,12.708,22.084,13.749c10.208,1.042,20-0.001,24.792-0.833c4.791-0.833,16.25-9.79,19.166-17.082
			c0,0,13.749-16.877,16.666-24.168s17.918-57.501,12.084-92.5c-5.834-35-16.459-64.375-16.459-64.375l-72.5-3.542L37.479,63.002
			l-2.501,72.086L38.312,157.375z"/>
		<path fill="#2B2D30" d="M42.889,90.742c0,0-3.853,15.412-1.927,20.228c1.927,4.816,1.927,4.816,1.927,4.816l0,0
			c0,0-3.372,6.262-3.372,12.041c0,5.777-2.408,26.487,1.445,36.602c3.854,10.113,6.743,17.338,5.298,20.228
			c0,0-7.706-3.371-9.151-9.151s-5.779-36.603-5.779-38.528c0-1.927-7.707-13.484-8.669-16.375
			c-0.963-2.89-4.816-15.893-4.334-20.709c0.481-4.816,0-12.522,0-14.93s1.445-12.521,1.927-13.966s-2.891-5.78-0.964-10.595
			c0,0-0.481-13.003,7.706-18.301c0,0,3.854-8.187,10.114-11.077c0,0,7.661-9.487,15.578-9.279c0,0,8.542-12.917,20.208-11.042
			c0,0,21.459-10.625,30.209-6.875c0,0,12.499,2.917,13.749,4.584c0,0,7.5-3.125,11.25,2.083c0,0,10.419,3.336,10.835,6.044
			c0,0,13.334,4.375,13.959,7.083c0.625,2.708,9.374,3.958,9.999,9.375c0.624,5.417,15.416,28.544,16.458,30.002
			c1.043,1.458,6.458,7.916,5,15.416c-1.457,7.5-6.665,27.293-6.874,35.209c-0.209,7.917-1.251,21.042-1.459,23.333
			c-0.209,2.293-2.291,27.918-4.167,31.043c-1.875,3.125-2.708,3.542-2.708,4.167s3.75-33.75,1.25-46.042
			s-8.124-36.667-7.708-41.667c0.417-5-1.667-10-3.959-11.25c-2.291-1.25,3.126,6.041-4.166,11.666c0,0,4.583-9.375-1.459-13.75
			c0,0-1.249,9.792-8.541,15.208c0,0,10.627-15.208,2.084-12.708c0,0-11.043,24.375-19.168,25.417c0,0,13.336-23.126-11.666-19.792
			c0,0-2.291,13.333-19.167,18.75c0,0,16.25-15.417,6.667-15.208c0,0-7.707,12.917-21.666,17.292c0,0,20.001-22.083,6.458-14.375
			c0,0-4.999,8.958-23.958,8.958c0,0,20-14.166,11.667-13.541c0,0-19.167,15-22.917,15.625c0,0,10-13.958,3.125-14.375
			c0,0-0.209,4.167-5.625,6.042C44.98,90.292,42.889,90.742,42.889,90.742z"/>
	</g>
</g>
<g id="Layer_6">
</g>
</svg>
