<?xml version="1.0" encoding="utf-8"?>
<!-- Generator: Adobe Illustrator 14.0.0, SVG Export Plug-In . SVG Version: 6.00 Build 43363)  -->
<!DOCTYPE svg PUBLIC "-//W3C//DTD SVG 1.1 Tiny//EN" "http://www.w3.org/Graphics/SVG/1.1/DTD/svg11-tiny.dtd">
<svg version="1.1" baseProfile="tiny" xmlns="http://www.w3.org/2000/svg" xmlns:xlink="http://www.w3.org/1999/xlink" x="0px"
	 y="0px" width="200px" height="250px" viewBox="0 0 200 250" xml:space="preserve">
<g id="Layer_5">
	<g>
		<path fill="#FFE1C0" d="M95.273,7.537c11.43-0.756,33.934,3.89,53.816,23.991c19.884,20.1,22.91,54.682,23.56,57.923
			c0.647,3.242,6.267,5.403,6.267,5.403s6.268,4.54,0.432,17.291c0,0-3.242,14.263-3.89,17.938
			c-0.648,3.676-3.459,11.239-3.891,12.537c-0.432,1.296-2.379,4.753-3.242,4.97c-0.863,0.216-2.377,0.216-2.377,0.216
			s-2.593,18.156-5.835,26.584c-3.242,8.43-11.239,21.183-13.834,24.208c-2.593,3.025-6.051,6.7-10.805,10.374
			c-4.756,3.674-24.641,9.295-31.125,9.295c-6.483,0-25.936-3.675-28.096-5.619c-2.162-1.945-6.051-7.999-6.268-9.511
			c-0.216-1.513-2.162-6.7-3.026-7.779c-0.865-1.081-16.643-24.423-18.155-28.529c-1.513-4.107-3.242-13.185-3.242-13.185
			s-1.512,0.649-3.242-1.513c-1.729-2.161-6.7-19.236-6.7-20.965s0.216-11.023,0-11.888c-0.216-0.864-1.08-4.97-1.729-6.916
			c-0.648-1.945-1.729-3.242-1.081-4.539c0.648-1.297,7.349-5.835,8.213-6.051c0.864-0.216-12.537-40.849,3.889-60.085
			C61.34,22.453,62.639,9.696,95.273,7.537z"/>
		<path fill="#CFCFCF" d="M96.786,155.807c4.106,1.08,5.187,1.944,9.078,1.08c3.891-0.865,7.997-2.811,9.726-0.865
			s17.289,8.647,20.315,8.862c3.027,0.216,4.755,2.81,5.404,5.188c0.647,2.377-1.297,7.78-3.242,9.077s-7.132,4.539-10.157,4.539
			c-3.027,0-8.646-1.729-11.889-1.945c-3.241-0.217-18.803-1.297-21.396-0.217s-6.484,1.729-8.429,1.729s-9.726,0.649-12.104,1.081
			c-2.377,0.432-4.323-2.594-5.835-4.322c-1.513-1.729-4.322-6.917-2.81-8.861c1.513-1.945,4.755-4.107,6.7-5.188
			c1.945-1.08,9.509-0.863,11.023-2.377s7.133-7.565,9.294-7.997C94.624,155.158,96.786,155.807,96.786,155.807z"/>
		<path fill="#CFCFCF" d="M99.379,188.226c3.694,0.2,15.345,0.863,18.586,0.216c3.242-0.648,6.701-1.73,6.701-0.648
			c0,1.081-7.351,13.617-8.214,16.643c-0.864,3.025-8.214,9.511-8.43,11.671c-0.215,2.161-2.594,4.105-3.674,5.403
			c-1.08,1.296-3.673-4.971-5.835-7.348c-2.162-2.38-3.242-7.565-5.187-8.646c-1.945-1.08-7.132-12.32-6.484-14.48
			C87.492,188.874,91.383,187.794,99.379,188.226z"/>
		<path fill="#CFCFCF" d="M81.873,204.651c2.749-1.622,7.997,4.971,9.942,4.971s28.961,0.649,30.475-0.216
			c1.512-0.865,6.915-4.539,7.131-5.187c0.218-0.649,7.566,20.531,6.053,28.529c0,0-6.699,2.809-8.213,4.97
			s-2.809,5.188-4.538,5.835c-1.73,0.649-10.376,4.54-12.104,4.108c-1.729-0.433-7.562-2.596-9.293-1.514
			c-1.729,1.081-8.861,1.729-9.51,0.647c-0.648-1.08-7.133-2.593-8.646-2.376c-1.513,0.216-5.404-0.001-5.835-2.162
			c-0.432-2.16-4.972-4.972-4.539-11.022S73.443,209.621,81.873,204.651z"/>
		<path fill="#CFCFCF" d="M41.023,122.521c0.865-0.648,1.297-8.86,1.297-11.886s-6.051-27.017-1.08-33.933
			c0,0-1.298-22.477,8.861-35.229c10.158-12.752,19.453-25.071,25.503-26.368c6.051-1.296,18.373-11.455,47.117,0
			c0,0,12.753,7.997,16.21,11.239c3.457,3.242,9.293,8.861,11.671,11.455c2.377,2.594,12.968,20.533,12.968,24.639
			c0,4.106,2.161,20.534,2.161,24.424s0.647,18.37,1.512,19.883c0.865,1.514,1.729,3.459,3.674,3.675c0,0,2.596-5.619,1.082-10.375
			c0,0,2.594-1.945,5.619-0.865c3.024,1.081,5.836,1.514,5.836,1.514s-4.322-5.835-4.539-9.078
			c-0.217-3.242-1.945-38.902-7.781-45.818c-5.836-6.916-10.157-18.156-12.751-18.588c-2.594-0.432-9.509-11.671-17.938-12.536
			c-8.429-0.864-19.885-8.212-20.965-9.509c-1.08-1.296-5.835-3.458-8.86-3.89c-3.027-0.433-24.855-0.648-32.42,4.106
			c-7.565,4.755-17.94,9.078-19.668,10.159c-1.729,1.08-9.078,2.594-9.078,4.754c0,2.161-1.297,5.835-1.945,6.7
			C46.86,27.858,32.812,48.39,31.731,54.01c-1.081,5.619-3.244,24.854-3.675,27.448c-0.432,2.594-2.809,12.536-1.08,14.913
			c1.728,2.378,3.458,10.375,3.89,11.023c0.432,0.648,2.593,8.214,2.161,9.51c-0.433,1.297,4.322,2.594,5.403,2.594
			C39.511,119.498,41.023,122.521,41.023,122.521z"/>
	</g>
</g>
<g id="Layer_2" display="none">
</g>
</svg>
