<?xml version="1.0" encoding="utf-8"?>
<!-- Generator: Adobe Illustrator 14.0.0, SVG Export Plug-In . SVG Version: 6.00 Build 43363)  -->
<!DOCTYPE svg PUBLIC "-//W3C//DTD SVG 1.1 Tiny//EN" "http://www.w3.org/Graphics/SVG/1.1/DTD/svg11-tiny.dtd">
<svg version="1.1" baseProfile="tiny" id="Layer_1" xmlns="http://www.w3.org/2000/svg" xmlns:xlink="http://www.w3.org/1999/xlink"
	 x="0px" y="0px" width="200px" height="250px" viewBox="0 0 200 250" xml:space="preserve">
<g>
	<path fill="#9500DF" d="M22.678,78.255c-8.847-13.673-8.311-38.07-5.362-53.083C23.214-5.927,66.914-0.297,89.434,4.796
		c15.55,3.485,32.976,7.507,47.989,13.673c4.558,2.145,8.579,5.898,13.137,7.775c5.362,2.413,10.724-0.804,16.354-1.34
		c4.825-0.804,11.26-1.609,13.404,3.485c1.877,4.289,1.341,10.724,1.608,15.549c0.269,6.703-5.63,17.158-11.796,19.571"/>
	<g>
		<path d="M23.644,77.996c-5.995-9.71-7.256-21.555-7.297-32.74c-0.036-9.838,0.483-21.502,5.729-30.147
			C32.403-1.914,58.783,0.306,75.548,2.737c10.796,1.565,21.47,4.26,32.035,6.918c7.014,1.764,13.96,3.778,20.805,6.112
			c3.797,1.294,7.631,2.647,11.1,4.677c2.952,1.728,5.654,3.815,8.666,5.455c4.004,2.181,7.96,1.746,12.212,0.763
			c6.273-1.451,16.459-4.801,19.441,3.207c1.809,4.854,1.694,12.597,0.853,17.633c-1.025,6.133-5.386,13.202-11.099,15.829
			c-1.168,0.537,0.63,0.595,1.141,0.359c8.566-3.938,12.293-13.963,12.105-22.779c-0.104-4.91,0.397-10.756-2.855-14.82
			c-2.307-2.882-7.393-2.305-10.554-1.952c-2.559,0.286-5.083,0.776-7.582,1.388c-6.794,1.664-10.632,0.696-16.203-2.936
			c-6.112-3.985-12.114-6.481-19.05-8.774c-12.986-4.293-26.449-7.381-39.828-10.18C70.782,0.301,53.139-1.75,37.296,3.156
			c-6.438,1.994-12.802,5.719-16.59,11.438c-5.384,8.128-5.899,18.759-6.242,28.232c-0.435,12.016,0.803,25.247,7.249,35.687
			C22.042,79.048,23.852,78.333,23.644,77.996L23.644,77.996z"/>
	</g>
</g>
<g>
	<path fill="#66FF3F" d="M72.275,33.215c-5.63-3.217-13.405-3.753-19.571-2.413c-12.601,2.681-17.426,15.818-21.18,27.078
		c-6.435,19.035-7.507,38.874-9.383,58.713c-2.413,25.737-4.826,51.206-5.094,77.212c0,5.094,0,9.919,0.804,15.014
		c0.268,2.681,0,9.383,1.608,11.796c3.217,4.825,12.064,5.898,17.426,7.507c27.346,7.507,61.662,24.396,88.472,5.63
		c6.702-4.826,10.456-10.992,13.673-18.23c4.826-10.724,8.848-21.984,12.064-32.977c5.094-18.23,7.507-37.533,10.188-56.031
		c2.949-23.057,5.898-48.794,3.485-72.119c-0.536-6.166-0.804-8.311-5.897-12.064c-8.312-5.898-16.354-7.507-26.542-9.115
		c-15.281-2.145-35.389-5.898-50.67-1.609"/>
	<g>
		<path d="M73.182,32.872c-8.228-4.283-18.926-4.422-27.09,0.124c-8.491,4.729-12.18,15.199-15.116,23.827
			c-4.966,14.589-6.981,29.779-8.437,45.06c-1.453,15.25-2.876,30.508-4.121,45.777c-1.309,16.056-2.347,32.188-2.334,48.303
			c0.005,6.197,0.746,12.307,1.062,18.482c0.241,4.7,1.39,8.052,5.915,10.126c4.584,2.101,9.601,2.992,14.436,4.341
			c6.407,1.787,12.715,3.928,19.054,5.938c12.159,3.855,24.55,7.329,37.364,7.852c10.113,0.412,20.779-1.685,29.442-7.098
			c11.345-7.088,16.19-18.529,20.963-30.533c11.597-29.167,15.833-60.366,19.478-91.358c1.755-14.924,2.998-29.924,2.792-44.962
			c-0.089-6.491-0.277-13.256-1.489-19.648c-0.992-5.23-6.596-8.205-10.85-10.458c-10.61-5.617-23.91-6.335-35.598-7.898
			c-12.264-1.64-24.984-2.653-37.087,0.51c-1.138,0.297-0.947,0.998,0.188,0.701c14.797-3.867,30.54-1.15,45.397,1.03
			c6.684,0.981,13.358,1.943,19.8,4.045c5.713,1.864,13.698,5.534,15.954,11.602c2.057,5.53,1.523,12.978,1.712,18.783
			c0.262,8.113-0.075,16.242-0.607,24.337c-1.057,16.067-3.256,32.044-5.551,47.972c-2.254,15.637-4.769,31.308-9.36,46.454
			c-4.188,13.813-8.886,29.647-17.838,41.2c-10.262,13.242-28.312,15.682-43.861,13.832c-13.611-1.62-26.724-6.375-39.721-10.498
			c-7.212-2.288-14.888-3.648-21.916-6.429c-8.408-3.325-6.974-13.832-7.551-21.372c-0.875-11.424,0.051-23.162,0.671-34.58
			c0.629-11.569,1.591-23.119,2.623-34.658c1.992-22.303,2.935-45.17,8.331-66.973c2.08-8.403,4.894-17.113,9.239-24.642
			c6.622-11.471,20.71-14.533,32.296-8.502C71.894,33.831,73.499,33.037,73.182,32.872L73.182,32.872z"/>
	</g>
</g>
<g>
	<path d="M50.664,148.343c-1.378,17.317-6.672,43.041,8.433,56.054c10.121,8.719,26.458,7.859,38.226,3.498
		c5.403-2.003,11.976-4.229,13.296-10.428c1.061-4.981,1.753-9.969,3.346-14.828c1.113-3.396,4.928-7.71,4.203-11.558
		c-0.423-2.248-4.308-3.209-5.979-3.837c-5.063-1.902-10.113-3.83-15.222-5.609c-12.435-4.333-25.12-7.92-37.776-11.537
		c-0.643-0.184-2.278,0.77-1.173,1.086c18.708,5.347,37.928,10.414,55.773,18.281c4.365,1.924,1.784,5.659,0.198,8.73
		c-1.722,3.332-2.756,6.964-3.597,10.6c-0.829,3.583-1.177,7.3-2.187,10.835c-1.059,3.708-7.331,5.732-10.596,7.027
		c-12.499,4.958-29.114,5.031-39.016-5.196c-5.45-5.63-6.725-13.866-7.389-21.333c-0.945-10.638,0.553-21.418,1.396-32.014
		C52.665,147.293,50.718,147.662,50.664,148.343L50.664,148.343z"/>
</g>
<g>
	<path d="M61.92,152.078c-1.009,11.71-1.16,23.486-2.949,35.12c-0.135,0.878,1.827,0.571,1.944-0.193
		c1.79-11.634,1.941-23.41,2.949-35.12C63.942,150.982,61.985,151.314,61.92,152.078L61.92,152.078z"/>
</g>
<g>
	<path d="M91.138,131.416c-4.038,19.866-6.828,39.952-9.383,60.054c-0.124,0.969,1.846,0.693,1.954-0.156
		c2.556-20.103,5.346-40.188,9.383-60.054C93.283,130.321,91.308,130.576,91.138,131.416L91.138,131.416z"/>
</g>
<g>
	<path d="M98.119,157.334c-1.541,20.267-1.405,40.629-3.485,60.858c-0.022,0.215,1.875,0.041,1.932-0.518
		c2.08-20.229,1.944-40.592,3.485-60.858C100.068,156.585,98.161,156.782,98.119,157.334L98.119,157.334z"/>
</g>
<g>
	<path d="M50.037,171.669c13.511,3.678,26.553,8.915,39.849,13.277c10.458,3.431,20.471,9.504,31.842,8.729
		c0.526-0.036,2.105-0.901,0.826-0.814c-11.387,0.775-21.843-5.652-32.331-9.093c-12.885-4.228-25.51-9.306-38.606-12.869
		C51.158,170.773,49.446,171.509,50.037,171.669L50.037,171.669z"/>
</g>
<g>
	<path d="M61.177,85.503C60.463,72.455,85.721,64.625,88.2,79.318c0.063,0.378,2.011-0.051,1.932-0.518
		c-2.654-15.73-31.646-6.68-30.886,7.22C59.263,86.344,61.205,86.021,61.177,85.503L61.177,85.503z"/>
</g>
<g>
	<path d="M111.052,84.332c0.043-6.296,7.948-22.863,16.068-18.023c5.881,3.506,5.363,15.202,6.388,21.052
		c0.144,0.82,2.081,0.336,1.932-0.518c-1.247-7.124-0.703-21.476-10.302-22.756c-8.678-1.157-15.987,13.491-16.035,20.423
		C109.096,85.461,111.046,85.122,111.052,84.332L111.052,84.332z"/>
</g>
<g>
	<path d="M166.798,93.65c1.258-2.227,4.687-5.818,6.711-2.281c0.793,1.387,0.787,3.334,0.885,4.877
		c0.116,1.832,0.169,3.669,0.167,5.505c-0.006,5.223-0.251,10.45-0.58,15.662c-0.204,3.227-1.938,34.667-8.157,33.361
		c-0.491-0.104-2.194,0.677-1.572,0.807c4.568,0.96,6.582-4.007,7.712-7.502c2.698-8.345,3.272-17.513,3.884-26.208
		c0.469-6.66,0.931-13.462,0.562-20.141c-0.211-3.806,0.029-8.934-4.858-9.187c-3.066-0.159-5.362,3.108-6.666,5.417
		C164.688,94.308,166.506,94.166,166.798,93.65L166.798,93.65z"/>
</g>
<g>
	<path d="M22.248,96.927c-8.74,0.936-12.919,10.036-14.181,17.794c-1.393,8.562,5.853,10.81,12.896,10.545
		c1.039-0.039,1.537-1.312,0.212-1.262c-6.789,0.254-11.881-1.94-11.163-9.473c0.62-6.495,4.771-15.567,12.023-16.344
		C23.054,98.08,23.575,96.785,22.248,96.927L22.248,96.927z"/>
</g>
<g>
	<path fill="#FFEE00" d="M116.627,16.746c-3.194,6.413-8.452,12.081-10.456,19.035c-0.146,0.509,1.759,0.234,1.914-0.307
		c2.004-6.953,7.262-12.622,10.456-19.035C118.736,16.047,116.891,16.217,116.627,16.746L116.627,16.746z"/>
</g>
<g>
	<path fill="#FFEE00" d="M126.802,24.205c-1.634,4.737-3.891,9.256-4.826,14.209c-0.149,0.79,1.285,0.41,1.583,0.233
		c1.1-0.653,1.938-1.413,2.707-2.433c0.565-0.748-1.398-0.652-1.814-0.102c-0.541,0.806-1.247,1.425-2.119,1.857
		c0.528,0.078,1.056,0.155,1.583,0.233c0.936-4.953,3.193-9.473,4.826-14.209C128.996,23.255,127.044,23.502,126.802,24.205
		L126.802,24.205z"/>
</g>
<g>
	<path fill="#FFEE00" d="M148.521,17.783c-2.199,7.222-5.038,14.226-7.238,21.448c-0.212,0.697,1.731,0.425,1.934-0.237
		c2.199-7.222,5.038-14.226,7.238-21.447C150.666,16.85,148.723,17.121,148.521,17.783L148.521,17.783z"/>
</g>
</svg>
