<?xml version="1.0" encoding="utf-8"?>
<!-- Generator: Adobe Illustrator 14.0.0, SVG Export Plug-In . SVG Version: 6.00 Build 43363)  -->
<!DOCTYPE svg PUBLIC "-//W3C//DTD SVG 1.1 Tiny//EN" "http://www.w3.org/Graphics/SVG/1.1/DTD/svg11-tiny.dtd">
<svg version="1.1" baseProfile="tiny" xmlns="http://www.w3.org/2000/svg" xmlns:xlink="http://www.w3.org/1999/xlink" x="0px"
	 y="0px" width="200px" height="250px" viewBox="0 0 200 250" xml:space="preserve">
<g id="Layer_5">
	<path d="M97.825,16.19c0,0-8.197-5.218-18.632-1.491c-10.434,3.727-21.24,13.042-27.576,21.24
		c-6.334,8.199-16.769,36.892-18.632,44.718c-1.863,7.826-1.491,26.83-1.119,31.674c0.373,4.845,1.119,35.03,0.746,38.011
		c-0.373,2.981-1.49,26.457-3.727,30.558c-2.236,4.098-12.669,21.613-13.788,23.475c-1.118,1.864-9.689,22.732-12.297,30.931
		c0,0,22.358-19.004,17.142-13.042c0,0-4.472,11.924-4.844,19.004c0,0,5.59-4.101,4.844-2.609c0,0,0.315,5.038,0.655,9.324
		c0.03,0.377,0.06,0.75,0.09,1.111c0.373,4.471,1.863-8.944,5.217-10.808c0,0,5.59,0.745,5.217,3.728
		c-0.373,2.979,17.887-46.953,17.142-35.774s10.433-29.439,12.297-19.377c1.863,10.06,2.608,19.377,3.354,26.084
		c0.746,6.708,0.372-48.07,4.099-40.99s2.981,11.924,4.472,16.397c1.491,4.471,3.727-38.757,2.981-24.596
		c0,0,31.303,21.613,52.543,9.689c21.24-11.927,22.358-18.261,22.358-18.261s7.453,23.104,7.453,29.812
		c0,6.708,11.926,42.109,11.553,44.346c-0.374,2.234,8.57-23.478,2.608-32.422c0,0,14.159,32.795,8.197,41.736
		c0,0,10.807-35.774,3.727-63.35s-3.726-38.009-3.354-43.971c0.372-5.962,4.845-21.614,2.607-29.066
		c-2.235-7.453-25.339-63.35-35.4-71.548c-10.062-8.199-17.141-11.18-17.514-14.161c-0.373-2.981-15.651-9.316-21.986-7.453
		S100.434,15.444,97.825,16.19z"/>
	<path fill="#F9E8B4" d="M64.288,52.336c-2.136,3.417-7.826,18.26-8.571,23.849c-0.745,5.59-3.726,11.925-4.099,13.788
		c-0.373,1.863-2.981,13.043-2.981,14.906c0,1.862,1.491,11.179,2.236,14.906c0.745,3.726,5.962,21.24,7.453,25.712
		c1.491,4.472,12.297,21.614,17.515,25.712c5.217,4.099,18.26,14.161,19.75,15.279s16.022,8.569,19.377,9.314
		c3.354,0.746,11.926,0.746,13.788-0.37c1.862-1.118,10.062-5.962,11.925-8.944c1.864-2.982,6.335-13.79,8.199-16.77
		c1.862-2.98,12.669-17.887,14.532-22.731c1.862-4.844,4.099-22.358,4.099-27.947c0-5.589-3.727-29.812-9.316-39.874
		c-5.59-10.062-16.769-29.067-21.612-32.793c-4.846-3.727-15.652-11.924-24.223-11.924c-8.571,0-23.849,0.745-29.812,3.727
		C76.584,41.157,68.014,46.374,64.288,52.336z"/>
</g>
<g id="Layer_2" display="none">
</g>
</svg>
